<svg width="528" height="121" viewBox="0 0 528 121" fill="none" xmlns="http://www.w3.org/2000/svg">
<path d="M16.8037 66.0679C11.9992 66.0679 8.25174 64.7947 5.56123 62.2484C2.91877 59.702 1.59753 56.0986 1.59753 51.4383C1.59753 48.5556 2.31821 45.6008 3.75955 42.574C5.20089 39.5472 7.38693 36.6405 10.3177 33.8539L11.759 32.4846H22.2808L23.7942 33.7818C26.6769 36.2321 28.7669 38.7304 30.0641 41.2768C31.3613 43.8232 32.0099 46.6818 32.0099 49.8528C32.0099 54.9456 30.6646 58.9333 27.9741 61.816C25.3317 64.6506 21.6082 66.0679 16.8037 66.0679ZM17.5244 55.2578C19.8305 55.2578 21.6082 54.8495 22.8574 54.0327C24.1546 53.2159 24.8032 52.1109 24.8032 50.7176C24.8032 50.2852 24.7071 49.8288 24.5149 49.3483C24.3708 48.8679 24.0585 48.3394 23.578 47.7629C23.0976 47.1863 22.449 46.5137 21.6322 45.745C20.8155 44.9763 19.7585 44.0874 18.4613 43.0785L15.9389 41.1327H15.3624L13.2724 43.1506C12.4557 43.9673 11.759 44.688 11.1825 45.3126C10.6059 45.9372 10.1255 46.5377 9.74113 47.1143C9.40482 47.6427 9.16459 48.1712 9.02046 48.6997C8.87632 49.2282 8.80426 49.7807 8.80426 50.3573C8.80426 51.7986 9.42884 52.9757 10.678 53.8886C11.9752 54.8014 13.7769 55.2578 16.083 55.2578H17.5244ZM21.9926 26.7192C20.7434 26.7192 19.7104 26.3349 18.8937 25.5662C18.125 24.7974 17.7406 23.5723 17.7406 21.8907C17.7406 20.2092 18.125 18.984 18.8937 18.2153C19.7104 17.4466 20.7434 17.0622 21.9926 17.0622H23.4339C24.6831 17.0622 25.692 17.4466 26.4607 18.2153C27.2775 18.984 27.6859 20.2092 27.6859 21.8907C27.6859 23.5723 27.2775 24.7974 26.4607 25.5662C25.692 26.3349 24.6831 26.7192 23.4339 26.7192H21.9926ZM10.6059 26.7192C9.35677 26.7192 8.32381 26.3349 7.50705 25.5662C6.73833 24.7974 6.35397 23.5723 6.35397 21.8907C6.35397 20.2092 6.73833 18.984 7.50705 18.2153C8.32381 17.4466 9.35677 17.0622 10.6059 17.0622H12.0473C13.2964 17.0622 14.3054 17.4466 15.0741 18.2153C15.8909 18.984 16.2992 20.2092 16.2992 21.8907C16.2992 23.5723 15.8909 24.7974 15.0741 25.5662C14.3054 26.3349 13.2964 26.7192 12.0473 26.7192H10.6059ZM29.0973 71.6892H31.98C36.3521 71.6892 39.5471 70.8003 41.5649 69.0227C43.6309 67.245 44.6398 64.2903 44.5918 60.1584C44.5918 59.0534 44.5197 57.9003 44.3756 56.6992C44.2314 55.45 44.0393 54.1288 43.799 52.7355L42.2856 43.1506L50.1409 41.9254L51.222 48.6277C51.4141 49.6846 51.5583 50.6936 51.6544 51.6545C51.7985 52.6154 51.9186 53.5282 52.0147 54.393H58.6449V63.0411L56.4829 65.2031H52.0147C51.1979 70.5361 49.084 74.74 45.6728 77.8149C42.3096 80.9378 37.7694 82.4993 32.0521 82.4993H29.0973V71.6892ZM56.431 56.5551L58.593 54.393H63.5657C66.2562 54.393 68.6584 54.369 70.7724 54.321C72.9344 54.2249 74.9763 54.0327 76.8981 53.7444C78.8199 53.4562 80.6936 53.0238 82.5193 52.4472C84.345 51.8707 86.2909 51.0779 88.3568 50.069L91.0233 48.7718V48.4115L79.4925 45.9612L68.6104 43.2947V48.6997H60.3226V43.1506C60.3226 39.7394 61.0433 37.241 62.4846 35.6556C63.974 34.0701 66.2321 33.2773 69.259 33.2773C69.6433 33.2773 70.0277 33.3014 70.412 33.3494C70.8444 33.3975 71.3249 33.4695 71.8534 33.5656C72.4299 33.6617 73.1026 33.8058 73.8713 33.998C74.64 34.1902 75.6009 34.4304 76.754 34.7187L90.6629 38.322C92.5847 38.8505 94.6507 39.2589 96.8607 39.5472C99.0708 39.8355 101.257 39.9796 103.419 39.9796H104.86V50.7897H99.2389L92.4646 55.402C89.2937 57.564 86.435 59.2936 83.8886 60.5908C81.3903 61.84 79.0121 62.8249 76.754 63.5456C74.4959 64.2182 72.3098 64.6746 70.1958 64.9149C68.0819 65.107 65.8718 65.2031 63.5657 65.2031H56.431V56.5551ZM81.2942 80.6976C80.045 80.6976 79.0121 80.3132 78.1953 79.5445C77.4266 78.7758 77.0422 77.5506 77.0422 75.8691C77.0422 74.1875 77.4266 72.9624 78.1953 72.1936C79.0121 71.4249 80.045 71.0406 81.2942 71.0406H82.7355C83.9847 71.0406 84.9936 71.4249 85.7624 72.1936C86.5791 72.9624 86.9875 74.1875 86.9875 75.8691C86.9875 77.5506 86.5791 78.7758 85.7624 79.5445C84.9936 80.3132 83.9847 80.6976 82.7355 80.6976H81.2942ZM109.168 54.393L121.564 43.2226L104.844 27.512L111.114 20.7376L128.41 37.0248C129.227 36.112 129.804 35.1271 130.14 34.0701C130.524 32.9651 130.716 31.5237 130.716 29.7461V11.8734H139.365V29.7461C139.365 30.9952 139.244 32.1483 139.004 33.2053C138.812 34.2623 138.476 35.2712 137.995 36.2321C137.563 37.193 136.962 38.1299 136.194 39.0427C135.425 39.9075 134.512 40.8204 133.455 41.7813L135.977 44.0874C136.986 45.0483 137.851 45.9612 138.572 46.826C139.292 47.6908 139.869 48.5556 140.301 49.4204C140.734 50.2852 141.046 51.1981 141.238 52.159C141.43 53.0718 141.527 54.0567 141.527 55.1137C141.527 56.5551 141.262 57.9003 140.734 59.1495C140.253 60.3506 139.557 61.4076 138.644 62.3204C137.779 63.2333 136.746 63.954 135.545 64.4825C134.344 64.9629 133.023 65.2031 131.581 65.2031H109.168V54.393ZM126.392 47.6908L118.753 54.1048L118.825 54.393H133.599L126.392 47.6908ZM108.232 11.9454H111.258L111.33 11.5851C110.37 10.5281 109.889 9.25494 109.889 7.76554C109.889 5.74766 110.61 4.09012 112.051 2.79291C113.54 1.44765 115.438 0.775024 117.744 0.775024C119.138 0.775024 120.483 1.06329 121.78 1.63983C123.077 2.21637 124.206 3.00911 125.167 4.01805L121.708 8.84655C120.555 7.69348 119.234 7.11694 117.744 7.11694C116.928 7.11694 116.255 7.30912 115.727 7.69348C115.246 8.07784 115.006 8.53426 115.006 9.06276C115.006 10.6482 116.663 11.441 119.978 11.441H125.311V17.7829H108.232V11.9454ZM148.379 11.8734H157.027V65.2031H148.379V11.8734ZM214.386 65.2031C210.014 65.1551 206.819 64.0981 204.801 62.0322C202.783 59.9182 201.774 57.0355 201.774 53.3841V53.0238H201.342C200.957 54.7053 200.501 56.1227 199.972 57.2757C199.492 58.4288 198.867 59.3657 198.099 60.0864C197.33 60.759 196.417 61.2634 195.36 61.5998C194.303 61.888 193.054 62.0322 191.613 62.0322C188.153 62.0322 185.559 61.1193 183.829 59.2936C182.1 57.4199 181.235 54.8014 181.235 51.4383C181.235 47.4986 182.316 44.3036 184.478 41.8533C186.688 39.355 189.643 37.193 193.342 35.3673L201.414 31.3315V27.3678H210.062V50.5014C210.062 51.9428 210.374 52.9517 210.999 53.5282C211.671 54.1048 212.8 54.393 214.386 54.393H216.548V63.0411L214.386 65.2031ZM193.991 51.2221C196.777 51.2221 198.699 50.9578 199.756 50.4293C200.861 49.9009 201.414 48.94 201.414 47.5467V38.8986L196.081 41.4209C194.784 42.0455 193.654 42.598 192.694 43.0785C191.781 43.5589 190.988 44.0634 190.315 44.5919C189.691 45.0723 189.21 45.5768 188.874 46.1053C188.586 46.6338 188.442 47.2344 188.442 47.907C188.442 49.1081 188.826 49.9729 189.595 50.5014C190.411 50.9819 191.877 51.2221 193.991 51.2221ZM205.089 21.6025C203.84 21.6025 202.807 21.2181 201.99 20.4494C201.222 19.6807 200.837 18.4555 200.837 16.7739C200.837 15.0924 201.222 13.8672 201.99 13.0985C202.807 12.3298 203.84 11.9454 205.089 11.9454H206.53C207.78 11.9454 208.789 12.3298 209.557 13.0985C210.374 13.8672 210.782 15.0924 210.782 16.7739C210.782 18.4555 210.374 19.6807 209.557 20.4494C208.789 21.2181 207.78 21.6025 206.53 21.6025H205.089ZM193.702 21.6025C192.453 21.6025 191.42 21.2181 190.604 20.4494C189.835 19.6807 189.451 18.4555 189.451 16.7739C189.451 15.0924 189.835 13.8672 190.604 13.0985C191.42 12.3298 192.453 11.9454 193.702 11.9454H195.144C196.393 11.9454 197.402 12.3298 198.171 13.0985C198.987 13.8672 199.396 15.0924 199.396 16.7739C199.396 18.4555 198.987 19.6807 198.171 20.4494C197.402 21.2181 196.393 21.6025 195.144 21.6025H193.702ZM214.382 56.5551L216.544 54.393H218.706C222.549 54.393 224.471 52.7115 224.471 49.3483V39.0427H232.399V49.3483C232.399 52.7115 234.08 54.393 237.443 54.393H240.326V63.0411L238.164 65.2031C234.32 65.2031 231.39 64.4344 229.372 62.897C227.402 61.3115 226.081 58.8372 225.408 55.474H224.976C224.303 58.8372 223.15 61.3115 221.516 62.897C219.883 64.4344 217.505 65.2031 214.382 65.2031V56.5551ZM227.714 80.6976C226.465 80.6976 225.432 80.3132 224.615 79.5445C223.847 78.7758 223.462 77.5506 223.462 75.8691C223.462 74.1875 223.847 72.9624 224.615 72.1936C225.432 71.4249 226.465 71.0406 227.714 71.0406H229.156C230.405 71.0406 231.414 71.4249 232.182 72.1936C232.999 72.9624 233.408 74.1875 233.408 75.8691C233.408 77.5506 232.999 78.7758 232.182 79.5445C231.414 80.3132 230.405 80.6976 229.156 80.6976H227.714ZM238.146 56.5551L240.308 54.393H240.38C242.686 54.393 244.392 54.1288 245.497 53.6003C246.65 53.0238 247.563 52.0388 248.235 50.6455L251.046 44.8081L258.181 48.2673L255.658 53.5282C256.811 54.0567 257.988 54.5132 259.19 54.8975C260.391 55.2338 261.616 55.402 262.865 55.402C264.931 55.402 266.42 54.9696 267.333 54.1048C268.246 53.1919 268.702 51.6064 268.702 49.3483V44.8081H276.63V49.3483C276.63 51.3662 276.966 52.8316 277.639 53.7444C278.359 54.6573 279.32 55.1137 280.521 55.1137H281.242C282.251 55.1137 283.068 54.7534 283.692 54.0327C284.317 53.264 284.629 52.0629 284.629 50.4293C284.629 49.7567 284.557 48.9159 284.413 47.907C284.269 46.85 284.077 45.5768 283.837 44.0874L283.188 40.412L291.043 39.1148L291.62 42.7902C291.86 44.1835 292.028 45.5048 292.124 46.7539C292.22 47.955 292.268 49.1802 292.268 50.4293C292.268 55.8104 291.332 59.7741 289.458 62.3204C287.632 64.8188 284.773 66.0679 280.882 66.0679C277.471 66.0679 274.9 65.2512 273.171 63.6176C271.441 61.9841 270.264 59.4618 269.639 56.0506H269.207C268.823 59.5098 267.958 62.0562 266.612 63.6897C265.315 65.2752 263.586 66.0679 261.424 66.0679C260.03 66.0679 258.637 65.8037 257.244 65.2752C255.898 64.7947 254.121 63.9059 251.911 62.6087L250.397 61.7439C248.908 63.1852 247.202 64.1221 245.281 64.5545C243.407 64.9869 241.029 65.2031 238.146 65.2031V56.5551ZM313.07 65.2031C308.218 65.2031 304.615 64.05 302.26 61.7439C299.906 59.4377 298.729 55.6903 298.729 50.5014V11.8734H307.377V49.0601C307.377 51.2221 307.81 52.6634 308.674 53.3841C309.539 54.0567 311.029 54.393 313.142 54.393H315.304V63.0411L313.142 65.2031H313.07ZM313.122 56.5551L315.284 54.393H320.256C322.947 54.393 325.349 54.369 327.463 54.321C329.625 54.2249 331.667 54.0327 333.589 53.7444C335.51 53.4562 337.384 53.0238 339.21 52.4472C341.036 51.8707 342.981 51.0779 345.047 50.069L347.714 48.7718V48.4115L336.183 45.9612L325.301 43.2947V48.6997H317.013V43.1506C317.013 39.7394 317.734 37.241 319.175 35.6556C320.665 34.0701 322.923 33.2773 325.95 33.2773C326.334 33.2773 326.718 33.3014 327.103 33.3494C327.535 33.3975 328.015 33.4695 328.544 33.5656C329.121 33.6617 329.793 33.8058 330.562 33.998C331.331 34.1902 332.291 34.4304 333.445 34.7187L347.354 38.322C349.275 38.8505 351.341 39.2589 353.551 39.5472C355.761 39.8355 357.947 39.9796 360.109 39.9796H361.551V50.7897H355.93L349.155 55.402C345.984 57.564 343.126 59.2936 340.579 60.5908C338.081 61.84 335.703 62.8249 333.445 63.5456C331.186 64.2182 329 64.6746 326.886 64.9149C324.772 65.107 322.562 65.2031 320.256 65.2031H313.122V56.5551Z" fill="#F2F2F2"/>
<path d="M10.4172 119.464C7.53782 119.464 5.29484 118.776 3.68825 117.399C2.08165 116.022 1.27835 114.102 1.27835 111.64C1.27835 110.68 1.40354 109.668 1.65392 108.604C1.92516 107.519 2.2903 106.445 2.74933 105.381L4.68976 105.975C4.29333 106.789 3.96992 107.645 3.71954 108.542C3.46917 109.418 3.34398 110.253 3.34398 111.046C3.34398 112.819 3.87603 114.196 4.94014 115.177C6.02511 116.157 7.53782 116.648 9.47825 116.648H11.3561C13.7556 116.648 15.5291 116.272 16.6766 115.521C17.8451 114.77 18.5127 113.581 18.6797 111.953H14.8614C13.1922 111.953 11.8986 111.515 10.9805 110.639C10.0625 109.762 9.60344 108.531 9.60344 106.946C9.60344 106.007 9.73906 105.12 10.0103 104.285C10.3024 103.451 10.6988 102.731 11.1996 102.126C11.7004 101.5 12.295 101.009 12.9836 100.655C13.693 100.279 14.465 100.091 15.2996 100.091C17.0105 100.091 18.3458 100.895 19.3056 102.501C20.2863 104.087 20.8079 106.34 20.8705 109.262H22.3102V111.327L21.6842 111.953H20.7453C20.4115 114.52 19.4099 116.408 17.7407 117.618C16.0924 118.849 13.6512 119.464 10.4172 119.464ZM11.7943 106.633C11.7943 107.551 12.0342 108.218 12.5141 108.636C13.0149 109.053 13.7973 109.262 14.8614 109.262H18.711V108.291C18.711 106.601 18.3876 105.266 17.7407 104.285C17.1148 103.284 16.2385 102.783 15.1118 102.783C14.0477 102.783 13.2235 103.138 12.6393 103.847C12.0759 104.557 11.7943 105.485 11.7943 106.633ZM17.0522 96.3358C16.6349 96.3358 16.3011 96.221 16.0507 95.9915C15.8003 95.7411 15.6751 95.3447 15.6751 94.8022C15.6751 94.2597 15.8003 93.8737 16.0507 93.6442C16.3011 93.3938 16.6349 93.2686 17.0522 93.2686H17.3965C17.8138 93.2686 18.1476 93.3938 18.398 93.6442C18.6484 93.8737 18.7736 94.2597 18.7736 94.8022C18.7736 95.3447 18.6484 95.7411 18.398 95.9915C18.1476 96.221 17.8138 96.3358 17.3965 96.3358H17.0522ZM13.0149 96.3358C12.5976 96.3358 12.2637 96.221 12.0133 95.9915C11.763 95.7411 11.6378 95.3447 11.6378 94.8022C11.6378 94.2597 11.763 93.8737 12.0133 93.6442C12.2637 93.3938 12.5976 93.2686 13.0149 93.2686H13.3591C13.7764 93.2686 14.1103 93.3938 14.3606 93.6442C14.611 93.8737 14.7362 94.2597 14.7362 94.8022C14.7362 95.3447 14.611 95.7411 14.3606 95.9915C14.1103 96.221 13.7764 96.3358 13.3591 96.3358H13.0149ZM21.6639 109.888L22.2898 109.262H22.7593C24.1364 109.262 25.1274 109.095 25.7325 108.761C26.3585 108.406 26.6714 107.738 26.6714 106.758C26.6714 106.382 26.6401 105.902 26.5776 105.318C26.5358 104.734 26.4315 103.962 26.2646 103.002L25.8264 100.404L28.0172 100.06L28.3928 102.658C28.5389 103.68 28.6432 104.515 28.7058 105.162C28.7684 105.808 28.7997 106.34 28.7997 106.758C28.7997 108.51 28.278 109.814 27.2348 110.67C26.2124 111.525 24.7206 111.953 22.7593 111.953H21.6639V109.888ZM28.4554 118.213C28.0381 118.213 27.7043 118.087 27.4539 117.837C27.2035 117.608 27.0783 117.222 27.0783 116.679C27.0783 116.137 27.2035 115.74 27.4539 115.49C27.7043 115.26 28.0381 115.145 28.4554 115.145H28.7997C29.217 115.145 29.5508 115.26 29.8012 115.49C30.0516 115.74 30.1767 116.137 30.1767 116.679C30.1767 117.222 30.0516 117.608 29.8012 117.837C29.5508 118.087 29.217 118.213 28.7997 118.213H28.4554ZM24.418 118.213C24.0007 118.213 23.6669 118.087 23.4165 117.837C23.1661 117.608 23.041 117.222 23.041 116.679C23.041 116.137 23.1661 115.74 23.4165 115.49C23.6669 115.26 24.0007 115.145 24.418 115.145H24.7623C25.1796 115.145 25.5134 115.26 25.7638 115.49C26.0142 115.74 26.1394 116.137 26.1394 116.679C26.1394 117.222 26.0142 117.608 25.7638 117.837C25.5134 118.087 25.1796 118.213 24.7623 118.213H24.418ZM31.1222 116.773H32.2802C33.4278 116.773 34.3667 116.606 35.097 116.272C35.8273 115.938 36.401 115.49 36.8183 114.926C37.2356 114.384 37.5277 113.737 37.6947 112.986C37.8616 112.256 37.945 111.484 37.945 110.67C37.945 110.065 37.9137 109.439 37.8511 108.792C37.7886 108.124 37.7051 107.488 37.6008 106.883L36.9435 103.346L39.1343 102.908L39.5412 105.287C39.6664 106.017 39.7603 106.706 39.8229 107.352C39.9063 107.999 39.9689 108.636 40.0107 109.262H42.9839V111.327L42.358 111.953H39.9794C39.8959 112.976 39.6977 113.935 39.3847 114.832C39.0926 115.751 38.644 116.554 38.0389 117.242C37.4547 117.931 36.6827 118.473 35.7229 118.87C34.784 119.266 33.6364 119.464 32.2802 119.464H31.1222V116.773ZM42.3508 109.888L42.9768 109.262H46.3256V111.327L45.6996 111.953H42.3508V109.888ZM45.6952 109.888L46.3211 109.262H49.67V111.327L49.044 111.953H45.6952V109.888ZM49.0396 109.888L49.6655 109.262H53.0143V111.327L52.3884 111.953H49.0396V109.888ZM52.3839 109.888L53.0099 109.262H56.3587V111.327L55.7328 111.953H52.3839V109.888ZM55.7283 109.888L56.3543 109.262H59.7031V111.327L59.0771 111.953H55.7283V109.888ZM59.0727 109.888L59.6986 109.262H63.0474V111.327L62.4215 111.953H59.0727V109.888ZM62.417 109.888L63.043 109.262H66.3918V111.327L65.7659 111.953H62.417V109.888ZM65.7614 109.888L66.3874 109.262H69.7362V111.327L69.1102 111.953H65.7614V109.888ZM69.1058 109.888L69.7317 109.262H73.0805V111.327L72.4546 111.953H69.1058V109.888ZM72.4501 109.888L73.0761 109.262H76.4249V111.327L75.799 111.953H72.4501V109.888ZM75.7945 109.888L76.4205 109.262H79.7693V111.327L79.1433 111.953H75.7945V109.888ZM79.1389 109.888L79.7648 109.262H83.1136V111.327L82.4877 111.953H79.1389V109.888ZM82.4833 109.888L83.1092 109.262H86.458V111.327L85.8321 111.953H82.4833V109.888ZM85.8276 109.888L86.4536 109.262H89.8024V111.327L89.1764 111.953H85.8276V109.888ZM89.172 109.888L89.7979 109.262H93.1468V111.327L92.5208 111.953H89.172V109.888ZM92.5164 109.888L93.1423 109.262H96.4911V111.327L95.8652 111.953H92.5164V109.888ZM95.8607 109.888L96.4867 109.262H99.8355V111.327L99.2095 111.953H95.8607V109.888ZM99.2051 109.888L99.831 109.262H103.18V111.327L102.554 111.953H99.2051V109.888ZM102.549 109.888L103.175 109.262H106.524V111.327L105.898 111.953H102.549V109.888ZM105.894 109.888L106.52 109.262H109.869V111.327L109.243 111.953H105.894V109.888ZM109.238 109.888L109.864 109.262H113.213V111.327L112.587 111.953H109.238V109.888ZM112.583 109.888L113.209 109.262H116.557V111.327L115.931 111.953H112.583V109.888ZM137.491 111.953C136.698 111.953 136.03 111.891 135.488 111.765C134.966 111.619 134.486 111.348 134.048 110.952C132.963 111.619 131.44 111.953 129.479 111.953H115.927V109.888L116.553 109.262H118.18L119.338 107.29V88.7931H121.654V100.248L121.279 103.91L121.435 103.972C122.124 103.054 122.812 102.293 123.501 101.688C124.189 101.062 124.888 100.561 125.598 100.185C126.328 99.8098 127.058 99.5385 127.789 99.3716C128.54 99.2047 129.312 99.1212 130.105 99.1212C132.129 99.1212 133.704 99.6846 134.831 100.811C135.957 101.917 136.521 103.451 136.521 105.412C136.521 106.873 136.281 108.083 135.801 109.042C136.239 109.189 136.802 109.262 137.491 109.262H138.117V111.327L137.491 111.953ZM129.479 109.262C131.044 109.262 132.243 109.001 133.078 108.479C133.912 107.957 134.33 107.039 134.33 105.725C134.33 104.431 133.996 103.461 133.328 102.814C132.681 102.147 131.763 101.813 130.574 101.813H129.635C128.801 101.813 128.039 101.896 127.35 102.063C126.683 102.209 126.036 102.48 125.41 102.877C124.805 103.252 124.2 103.785 123.595 104.473C123.011 105.141 122.385 105.986 121.717 107.008L120.371 109.105L120.465 109.262H129.479ZM137.487 109.888L138.113 109.262H139.021C140.022 109.262 140.742 109.032 141.18 108.573C141.639 108.114 141.869 107.384 141.869 106.382V88.7931H144.185V106.382C144.185 108.302 143.768 109.71 142.933 110.607C142.119 111.505 140.815 111.953 139.021 111.953H137.487V109.888ZM148.848 88.7931H151.164V111.953H148.848V88.7931ZM170.438 119.464C167.809 119.464 165.764 118.776 164.304 117.399C162.843 116.022 162.113 114.102 162.113 111.64C162.113 110.68 162.238 109.668 162.488 108.604C162.76 107.519 163.125 106.445 163.584 105.381L165.524 105.975C165.128 106.852 164.804 107.759 164.554 108.698C164.304 109.637 164.178 110.524 164.178 111.358C164.178 113.049 164.648 114.353 165.587 115.271C166.526 116.189 167.83 116.648 169.499 116.648H171.377C172.357 116.648 173.182 116.533 173.849 116.303C174.538 116.095 175.091 115.73 175.508 115.208C175.925 114.707 176.228 114.04 176.416 113.205C176.603 112.391 176.697 111.39 176.697 110.2V88.7931H179.013V110.2C179.013 113.393 178.325 115.73 176.948 117.211C175.571 118.713 173.401 119.464 170.438 119.464ZM182.416 116.773H184.074C186.349 116.773 188.101 116.345 189.332 115.49C190.584 114.655 191.356 113.476 191.648 111.953H187.987C186.317 111.953 185.024 111.515 184.106 110.639C183.188 109.762 182.729 108.531 182.729 106.946C182.729 106.007 182.864 105.12 183.136 104.285C183.428 103.451 183.824 102.731 184.325 102.126C184.826 101.5 185.42 101.009 186.109 100.655C186.818 100.279 187.59 100.091 188.425 100.091C190.157 100.091 191.513 100.863 192.493 102.407C193.495 103.951 193.996 106.121 193.996 108.917V109.262H195.435V111.327L194.809 111.953H193.714C193.255 114.353 192.222 116.199 190.616 117.493C189.03 118.807 186.849 119.464 184.074 119.464H182.416V116.773ZM184.919 106.633C184.919 107.551 185.159 108.218 185.639 108.636C186.14 109.053 186.923 109.262 187.987 109.262H191.805V108.291C191.805 106.601 191.481 105.266 190.835 104.285C190.209 103.284 189.343 102.783 188.237 102.783C187.173 102.783 186.349 103.138 185.765 103.847C185.201 104.557 184.919 105.485 184.919 106.633ZM194.798 109.888L195.424 109.262H198.773V111.327L198.147 111.953H194.798V109.888ZM198.142 109.888L198.768 109.262H202.117V111.327L201.491 111.953H198.142V109.888ZM201.487 109.888L202.113 109.262H205.461V111.327L204.835 111.953H201.487V109.888ZM204.831 109.888L205.457 109.262H208.806V111.327L208.18 111.953H204.831V109.888ZM208.175 109.888L208.801 109.262H212.15V111.327L211.524 111.953H208.175V109.888ZM211.52 109.888L212.146 109.262H215.495V111.327L214.869 111.953H211.52V109.888ZM214.864 109.888L215.49 109.262H218.839V111.327L218.213 111.953H214.864V109.888ZM218.208 109.888L218.834 109.262H222.183V111.327L221.557 111.953H218.208V109.888ZM221.553 109.888L222.179 109.262H225.528V111.327L224.902 111.953H221.553V109.888ZM224.897 109.888L225.523 109.262H228.872V111.327L228.246 111.953H224.897V109.888ZM228.242 109.888L228.868 109.262H232.216V111.327L231.59 111.953H228.242V109.888ZM231.586 109.888L232.212 109.262H235.561V111.327L234.935 111.953H231.586V109.888ZM240.282 103.91L240.439 103.972C241.127 103.054 241.816 102.293 242.504 101.688C243.193 101.062 243.892 100.561 244.601 100.185C245.331 99.8098 246.062 99.5385 246.792 99.3716C247.543 99.2047 248.315 99.1212 249.108 99.1212C251.132 99.1212 252.707 99.6846 253.834 100.811C254.961 101.917 255.524 103.451 255.524 105.412C255.524 107.77 254.929 109.449 253.74 110.451C252.551 111.452 250.798 111.953 248.482 111.953H234.93V109.888L235.556 109.262H237.184L238.342 107.29V88.7931H240.658V100.248L240.282 103.91ZM248.482 109.262C250.047 109.262 251.247 109.001 252.081 108.479C252.916 107.957 253.333 107.039 253.333 105.725C253.333 104.431 252.999 103.461 252.332 102.814C251.685 102.147 250.767 101.813 249.577 101.813H248.639C247.804 101.813 247.042 101.896 246.354 102.063C245.686 102.209 245.039 102.48 244.413 102.877C243.808 103.252 243.203 103.785 242.598 104.473C242.014 105.141 241.388 105.986 240.72 107.008L239.375 109.105L239.468 109.262H248.482ZM265.816 109.262H278.272C279.169 109.262 279.92 109.189 280.526 109.042C281.152 108.876 281.652 108.625 282.028 108.291C282.403 107.937 282.675 107.478 282.842 106.914C283.008 106.33 283.092 105.631 283.092 104.817V88.7931H285.408V104.817C285.408 107.238 284.824 109.032 283.655 110.2C282.487 111.369 280.692 111.953 278.272 111.953H265.816V109.262ZM272.326 103.284L276.77 101.062L276.739 100.936H274.767C274.099 100.936 273.578 100.78 273.202 100.467C272.826 100.133 272.639 99.6324 272.639 98.9647C272.639 98.5057 272.785 98.0675 273.077 97.6502C273.39 97.2121 273.974 96.7426 274.829 96.2419L276.739 95.1152L277.678 96.6174L274.203 98.7144L274.235 98.8708H276.645C277.187 98.8708 277.604 99.0273 277.897 99.3403C278.189 99.6324 278.335 100.05 278.335 100.592C278.335 100.926 278.303 101.218 278.241 101.469C278.178 101.698 278.074 101.907 277.928 102.094C277.782 102.282 277.573 102.47 277.302 102.658C277.031 102.825 276.697 103.013 276.3 103.221L273.108 104.849L272.326 103.284ZM295.53 111.953C294.528 111.953 293.673 111.87 292.964 111.703C292.275 111.536 291.712 111.265 291.273 110.889C290.856 110.493 290.554 109.981 290.366 109.355C290.178 108.729 290.084 107.968 290.084 107.071V88.7931H292.4V107.071C292.4 107.864 292.619 108.427 293.057 108.761C293.496 109.095 294.174 109.262 295.092 109.262H296.187V111.327L295.561 111.953H295.53ZM295.529 109.888L296.155 109.262H299.504V111.327L298.878 111.953H295.529V109.888ZM298.873 109.888L299.499 109.262H302.848V111.327L302.222 111.953H298.873V109.888ZM302.218 109.888L302.844 109.262H306.192V111.327L305.566 111.953H302.218V109.888ZM305.562 109.888L306.188 109.262H309.537V111.327L308.911 111.953H305.562V109.888ZM308.906 109.888L309.532 109.262H312.881V111.327L312.255 111.953H308.906V109.888ZM312.251 109.888L312.877 109.262H316.225V111.327L315.6 111.953H312.251V109.888ZM315.595 109.888L316.221 109.262H319.57V111.327L318.944 111.953H315.595V109.888ZM318.939 109.888L319.565 109.262H322.914V111.327L322.288 111.953H318.939V109.888ZM322.284 109.888L322.91 109.262H326.259V111.327L325.633 111.953H322.284V109.888ZM325.628 109.888L326.254 109.262H329.603V111.327L328.977 111.953H325.628V109.888ZM328.973 109.888L329.599 109.262H332.947V111.327L332.321 111.953H328.973V109.888ZM332.317 109.888L332.943 109.262H338.733L338.764 109.136L334.351 103.691V100.999C335.269 100.519 336.26 100.154 337.324 99.9037C338.409 99.6324 339.463 99.4968 340.486 99.4968C342.384 99.4968 343.855 99.8828 344.898 100.655C345.963 101.427 346.495 102.501 346.495 103.878C346.495 104.421 346.422 104.901 346.276 105.318C346.15 105.715 345.931 106.111 345.618 106.507C345.305 106.904 344.898 107.311 344.398 107.728C343.897 108.145 343.292 108.625 342.582 109.168L342.614 109.262H347.903V111.327L347.277 111.953H345.243C344.408 111.953 343.594 111.838 342.802 111.609C342.03 111.358 341.31 110.993 340.642 110.513C339.974 110.993 339.244 111.358 338.451 111.609C337.679 111.838 336.876 111.953 336.041 111.953H332.317V109.888ZM336.448 102.939L340.861 108.197L341.205 107.916C341.706 107.498 342.144 107.133 342.52 106.82C342.916 106.507 343.25 106.215 343.521 105.944C343.793 105.652 344.001 105.381 344.147 105.13C344.293 104.859 344.366 104.567 344.366 104.254C344.366 103.586 344.022 103.075 343.334 102.72C342.645 102.366 341.675 102.188 340.423 102.188C339.818 102.188 339.181 102.241 338.514 102.345C337.867 102.428 337.178 102.585 336.448 102.814V102.939ZM351.345 110.138C350.865 110.785 350.302 111.254 349.655 111.546C349.029 111.818 348.226 111.953 347.245 111.953V109.888L347.871 109.262C348.267 109.262 348.601 109.209 348.872 109.105C349.165 109.001 349.415 108.844 349.624 108.636C349.853 108.406 350.051 108.114 350.218 107.759C350.406 107.384 350.594 106.946 350.782 106.445L351.658 104.129C352.138 102.877 352.774 101.917 353.567 101.249C354.36 100.561 355.414 100.217 356.728 100.217C358.272 100.217 359.461 100.916 360.296 102.314C361.151 103.711 361.579 105.652 361.579 108.135V109.606L359.733 112.329L351.345 110.138ZM352.597 107.665L359.388 109.481V108.135C359.388 106.507 359.117 105.235 358.575 104.317C358.053 103.378 357.312 102.908 356.353 102.908C355.56 102.908 354.944 103.148 354.506 103.628C354.089 104.108 353.734 104.713 353.442 105.443L352.597 107.665Z" fill="#E0E0E0"/>
<path fill-rule="evenodd" clip-rule="evenodd" d="M498.962 75.2155C504.412 65.7764 487.367 45.7285 460.892 30.4421C434.408 15.156 408.529 10.4174 403.079 19.8565C400.053 25.0844 397.034 30.3199 394.015 35.5554C388.565 44.9948 405.609 65.0348 432.093 80.3212C458.568 95.6073 484.455 100.354 489.905 90.9144C492.924 85.6789 495.943 80.451 498.962 75.2155Z" fill="#FE9923"/>
<path fill-rule="evenodd" clip-rule="evenodd" d="M498.963 75.2198C503.121 68.0277 494.201 54.6674 478.005 41.957C473.626 43.9977 469.155 46.3212 464.668 48.9121C448.924 57.9999 436.121 68.5703 428.379 78.1164C429.594 78.8656 430.832 79.5992 432.093 80.3253C446.738 88.7785 461.198 94.0064 472.12 95.3975C477.012 93.181 482.026 90.6129 487.062 87.7084C489.554 86.264 491.969 84.7888 494.308 83.2831L498.963 75.2198Z" fill="#CE7C1D"/>
<path fill-rule="evenodd" clip-rule="evenodd" d="M460.894 30.4424C434.41 15.156 408.531 10.4174 403.081 19.8565C397.632 29.288 414.676 49.3359 441.159 64.6222C467.635 79.9084 493.522 84.6549 498.964 75.2155C504.413 65.7763 487.369 45.7285 460.894 30.4424Z" fill="#FECD3D"/>
<path fill-rule="evenodd" clip-rule="evenodd" d="M441.629 64.9017C467.944 79.9663 493.548 84.598 498.96 75.2198C503.118 68.0277 494.198 54.6674 478.002 41.957C473.623 43.9977 469.152 46.3212 464.665 48.9121C455.967 53.9262 448.171 59.3987 441.629 64.9017Z" fill="#CEA732"/>
<path fill-rule="evenodd" clip-rule="evenodd" d="M456.277 38.4304C435.213 26.27 415.784 20.4843 412.879 25.5135C409.983 30.5427 424.703 44.4761 445.768 56.6363C466.832 68.7964 486.261 74.5822 489.165 69.5532C492.07 64.5316 477.341 50.5982 456.277 38.4304Z" fill="#FEA832"/>
<path fill-rule="evenodd" clip-rule="evenodd" d="M449.512 58.7403C469.086 69.4484 486.435 74.2863 489.164 69.5553C491.434 65.6192 482.905 56.2258 468.986 46.4961C467.55 47.2757 466.105 48.0783 464.668 48.9113C459.234 52.0451 454.159 55.3545 449.512 58.7403Z" fill="#CE8829"/>
<path d="M479.119 89.1287L475.32 95.7017C473.708 95.6024 471.988 95.4114 470.192 95.1207L475.022 86.7516L479.119 89.1287ZM422.827 74.5381C424.119 75.4095 425.441 76.273 426.794 77.1215L431.181 69.5241L427.085 67.1699L422.827 74.5381ZM397.154 50.5691C398.049 51.9222 399.073 53.313 400.227 54.727L405.058 46.3655L400.953 43.9961L397.154 50.5691ZM409.177 63.9675C410.346 65.007 411.562 66.0542 412.83 67.0935L417.432 59.1293L413.335 56.7753L409.177 63.9675ZM437.502 83.3122C438.924 84.0537 440.338 84.7721 441.737 85.4522L445.994 78.0843L441.897 75.7072L437.502 83.3122ZM453.178 90.3897C454.715 90.9707 456.228 91.4981 457.711 91.9871L461.869 84.7874L457.772 82.4332L453.178 90.3897Z" fill="#C85929"/>
<path fill-rule="evenodd" clip-rule="evenodd" d="M421.307 100.379C415.858 90.9402 432.91 70.9 459.385 55.6136C485.861 40.3198 511.748 35.581 517.198 45.0204C520.217 50.2559 523.236 55.4838 526.262 60.7193C531.712 70.1584 514.66 90.1987 488.185 105.493C461.701 120.779 435.822 125.518 430.372 116.078C427.353 110.85 424.326 105.615 421.307 100.379Z" fill="#FE9923"/>
<path fill-rule="evenodd" clip-rule="evenodd" d="M459.385 55.6136C485.861 40.3198 511.748 35.581 517.198 45.0204C522.647 54.4595 505.595 74.4997 479.12 89.7861C452.636 105.08 426.757 109.819 421.307 100.379C415.858 90.94 432.909 70.9 459.385 55.6136Z" fill="#FECD3D"/>
<path fill-rule="evenodd" clip-rule="evenodd" d="M463.996 63.6026C485.061 51.4348 504.497 45.6567 507.394 50.678C510.298 55.7073 495.578 69.6406 474.505 81.8008C453.441 93.9685 434.012 99.7467 431.116 94.7253C428.211 89.6964 442.932 75.763 463.996 63.6026Z" fill="#FEA832"/>
<path d="M462.504 107.593L467.097 115.55C465.561 116.131 464.048 116.666 462.557 117.147L458.399 109.947L462.504 107.593ZM474.282 103.244L478.531 110.612C479.938 109.932 481.352 109.221 482.766 108.472L478.378 100.875L474.282 103.244ZM441.156 114.289L444.947 120.862C446.568 120.77 448.28 120.571 450.083 120.281L445.253 111.919L441.156 114.289ZM519.315 69.1562L515.218 71.5257L520.041 79.8872C521.195 78.4734 522.227 77.0899 523.113 75.7369L519.315 69.1562ZM489.094 94.6843L493.481 102.289C494.834 101.433 496.156 100.57 497.448 99.6983L493.191 92.3303L489.094 94.6843ZM502.844 84.2894L507.445 92.2612C508.714 91.2141 509.929 90.1748 511.091 89.1276L506.941 81.9355L502.844 84.2894Z" fill="#C85929"/>
</svg>
